<svg version="1.2" xmlns="http://www.w3.org/2000/svg" viewBox="0 0 1024 1024" width="1024" height="1024">
	<style>
		.s0 { fill: #052447 } 
		.s1 { fill: #f05056 } 
	</style>
	<path class="s0" d="m338.16 498.96l-0.05-77c-0.01-8.92-0.69-32.86 0.89-40.16 1.44-6.4 4.69-12.25 9.37-16.85 11.27-11.2 24.47-9.41 39.07-9.37l36.15 0.06 98.58-0.02c17.12 0.01 34.3 0.06 51.42 0.01 4.13-0.02 7.35 0.24 8.19-4.09-1.08-4.11-3.83-5.95-5.55-9.32-8.33-16.44 1.35-35.7 18.78-39.89 7.28-1.73 14.96-0.42 21.26 3.63 6.41 4.1 10.9 10.61 12.45 18.06 1.21 5.85 0.25 14.78-3.49 19.44-9.71 12.03-2.81 12.85 8.51 12.3 20.14-0.96 40.73-2.39 50.73 19.02 4.52 9.68 3.08 23.68 3.08 34.2l-0.02 42.35-0.01 43.71c0 6.93 0.3 17.39-0.2 24.16-2.27 8.24-5.28 14.12-13.21 18.58-12.53 7.07-28.93 2.65-35.5-10.29-1.3-2.58-2.2-5.49-3.12-8.23-1.77-33.02 0.64-67.37-0.47-100.53-0.07-2.19-0.53-4.43-1.27-6.5-1-1.04-2.77-1.74-4.21-1.76-22.28-0.29-44.68-0.02-66.99-0.13-5-0.03-7.41 4.28-4.37 8.38 5.13 6.9 7.6 13.66 6.21 22.31-1.18 7.31-5.28 13.83-11.35 18.07-6.06 4.21-13.54 5.87-20.81 4.63-17.13-3.01-28.41-20.49-21.17-37.48 1.44-3.23 5.3-7.23 5.73-10.75 0.39-3.14-2.53-4.77-5.2-4.9-7.62-0.38-15.19-0.25-22.8-0.24l-41.2 0.02-33.88-0.02c-6.21-0.02-12.44-0.15-18.64 0.12-2.03 0.09-4.49 2.52-4.56 4.49-0.37 9.64-0.19 19.37-0.19 29.03l0.07 64.57c-1.85-3-2.56-8.58-4.91-12.17-13.68-20.88-41.23-14.53-46.66 9.34-0.32-2.13-0.47-4.61-0.66-6.78z"/>
	<path class="s1" d="m338.82 505.74c5.43-23.87 32.98-30.22 46.66-9.34 2.35 3.59 3.06 9.16 4.91 12.16 0.63 32.51-0.61 65.34 0.06 97.87 0.04 1.89 0.54 5.12 1.9 6.52 3.44 1.03 7.21 1.06 10.78 1.01 19.27-0.29 38.55 0.11 57.82-0.17 2.07-0.03 4.63-0.52 6.57-1.13 3.88-5.01-6.31-14.94-6.33-24.26-0.06-23.53 25.84-37.14 44.32-22.86 5.97 4.63 9.84 11.45 10.75 18.95 0.89 7.58-1.27 12.64-5.25 18.68-1.82 2.78-4.33 6.73-1.15 9.51 0.93 0.84 2.04 1.22 3.27 1.22 8.27 0.13 16.64 0.05 24.91 0.02l43.42-0.01 32.16 0.02c5.77 0 11.6 0.08 17.35-0.32 2.6-0.18 3.85-3.16 3.96-5.45 0.35-6.97 0.06-14.01 0.04-21.01l0.05-40.54c0-8.36-0.28-19.29 0.47-27.36 0.92 2.74 1.82 5.66 3.13 8.24 6.56 12.94 22.96 17.36 35.5 10.29 7.92-4.46 10.93-10.34 13.2-18.58 1.02 25.15-0.34 52.94 0.18 78.38 0.15 7.76 0.45 38.26-0.72 44.34-2.31 11.57-10.49 21.08-21.57 25.12-9.76 3.57-43.87 2.18-56.54 2.17l-104.17-0.01c-7.17 0-56.15-0.73-58.91 1.17-3 5.17 2.73 9.55 4.62 14.43 7.05 18.17-6.58 37.79-26.22 37.37-18.83-0.4-32.23-18.79-25.17-36.68 1.71-4.34 5.31-9.09 5.38-13.74-4.21-7.49-38.46 5.29-56.21-12.35-4.18-4.15-7.83-10.63-9.07-16.41-2.15-10.07-0.86-34.81-0.85-46.02l0.09-98.01c0.19 2.17 0.34 4.65 0.66 6.78z"/>
</svg>